# xmcd
#
# Track frame offsets:
#	150
#	15238
#	28525
#	38782
#	50356
#	64455
#	79638
#	91773
#	107754
#	116954
#	135411
#	147464
#	158556
#	170959
#	184141
#	196678
#
# Disc length: 2794 seconds
#
# Revision: 0
# Processed by: cddbd v1.5.2PL0 Copyright (c) Steve Scherf et al.
# Submitted via: EasyCDDAExtractor 12.0.1.1
#
DISCID=d10ae810
DTITLE=Jiří Bosák -  Bosákovy sprostonárodní písně z kadibudky CD3
DYEAR=2009
DGENRE=
TTITLE0=Božena
TTITLE1=Ducháček
TTITLE2=Černý muž
TTITLE3=Hornická
TTITLE4=Kominíček
TTITLE5=Poslechněte novinu
TTITLE6=Tydlidát
TTITLE7=Pytlácké milování
TTITLE8=Kostelník
TTITLE9=Vyšel si sedlák
TTITLE10=Pan účetní z pivovára
TTITLE11=Já mám ráda políra
TTITLE12=Tam na kopečku
TTITLE13=Nám je to jedno
TTITLE14=Krásná je za noci
TTITLE15=Pytláci, pytláci
EXTD=
EXTT0=
EXTT1=
EXTT2=
EXTT3=
EXTT4=
EXTT5=
EXTT6=
EXTT7=
EXTT8=
EXTT9=
EXTT10=
EXTT11=
EXTT12=
EXTT13=
EXTT14=
EXTT15=
PLAYORDER=
